<svg xmlns="http://www.w3.org/2000/svg" viewBox="0 0 147.51 60"><title>Asset 2</title><g id="Layer_2" data-name="Layer 2"><g id="Layer_1-2" data-name="Layer 1"><path d="M30.34,37.5a1.05,1.05,0,0,0-1.32.68l-3.2,9.93,8.45-1.4a1,1,0,0,0-.34-2.07l-5.07.84L31,38.82A1,1,0,0,0,30.34,37.5Z" fill="#00adee"/><path d="M43.54,46.64A1.05,1.05,0,0,0,42.1,47c-2.1,3.42-6.19,5.84-10.92,6.48C26.9,54,22.86,53,20.37,50.64a1.05,1.05,0,0,0-1.48,0,1,1,0,0,0,.05,1.48,14.31,14.31,0,0,0,9.9,3.54,19.56,19.56,0,0,0,2.62-.18c5.35-.72,10-3.5,12.42-7.45A1,1,0,0,0,43.54,46.64Z" fill="#00adee"/><path d="M53,33.11a1,1,0,0,0,1.05,1h0a1,1,0,0,0,1-1V26.73a27.68,27.68,0,0,1,2.37-6.67c1-2,2.7-4.47,4.77-4.81,1.58-.27,2.62.16,3.08,1.28a2.5,2.5,0,0,1,.23.87c-.1,3.39-2.61,5.93-7.47,7.56-.4.13-1.22.41-1.08,1.3a8.2,8.2,0,0,0,3,5,6.48,6.48,0,0,0,3.88,1.21,9.68,9.68,0,0,0,1.49-.13,10.87,10.87,0,0,0,6.43-4,1,1,0,0,0-1.69-1.23A8.74,8.74,0,0,1,65,30.23a4.87,4.87,0,0,1-3.8-.7,5.6,5.6,0,0,1-1.92-2.78c3.85-1.39,8.21-4.11,8.36-9.29a4.24,4.24,0,0,0-.39-1.73c-.84-2.05-2.8-3-5.36-2.55-3,.51-5.3,3.69-6.79,6.93V8.23a1,1,0,0,0-1-1.05h0a1,1,0,0,0-1.05,1.05V26.32a9.23,9.23,0,0,1-5.43,2.9,12.36,12.36,0,0,0,.68-3.73,9.39,9.39,0,0,0-.06-1.41s0,0,0,0v0a8.77,8.77,0,0,0-2.82-5.51,7.19,7.19,0,0,0-6-1.65,10.38,10.38,0,0,0-6.47,4.07,12.6,12.6,0,0,0-2.58,7.13,9.54,9.54,0,0,0,.13,1.86,7.71,7.71,0,0,1-5.06,3,12.37,12.37,0,0,0,.69-3.73,9.18,9.18,0,0,0-.07-1.39v-.1a.77.77,0,0,0,0-.15h0a8.69,8.69,0,0,0-2.8-5.34,7.18,7.18,0,0,0-6-1.65,10.34,10.34,0,0,0-6.46,4.07,12.59,12.59,0,0,0-2.59,7.13,9.2,9.2,0,0,0,.15,2C7.87,36.79,6.13,40,4.74,40.24A1.61,1.61,0,0,1,3.49,40,3.65,3.65,0,0,1,2.31,37.6a20.15,20.15,0,0,1-.22-3.25V17a1,1,0,0,0-1-1h0a1,1,0,0,0-1,1V34.35a22,22,0,0,0,.25,3.59,5.55,5.55,0,0,0,2,3.75,3.54,3.54,0,0,0,2.12.67,4,4,0,0,0,.69-.06c1.36-.22,2.64-1.38,3.68-3.34A13.56,13.56,0,0,0,9.61,37a7.9,7.9,0,0,0,1.46,1.69,7,7,0,0,0,4.71,1.76,8.19,8.19,0,0,0,1.29-.1,10.39,10.39,0,0,0,6.45-3.94,11.69,11.69,0,0,0,.94-1.39h.18a9.8,9.8,0,0,0,6.57-2.78,8.18,8.18,0,0,0,2,2.77A7.09,7.09,0,0,0,38,36.8a8,8,0,0,0,1.28-.1,10.46,10.46,0,0,0,6.46-3.94,12.14,12.14,0,0,0,.93-1.4h.18a11,11,0,0,0,6.23-2.2ZM23.39,27A1.23,1.23,0,0,1,24,28,6.18,6.18,0,0,1,24,29.11a10.16,10.16,0,0,1-.78,3.67,3.12,3.12,0,0,1-2.34-2c-.66-2,.31-3.43,1.21-3.78A1.46,1.46,0,0,1,23.39,27ZM16.73,38.31a5.05,5.05,0,0,1-4.29-1.16,6.93,6.93,0,0,1-2.18-5.36c.11-3.86,2.93-8.47,7.3-9.2a6.43,6.43,0,0,1,1-.08,5,5,0,0,1,3.33,1.25,5.62,5.62,0,0,1,.89,1,3.8,3.8,0,0,0-1.39.26c-2.5,1-3.21,4-2.45,6.37a5.15,5.15,0,0,0,3.32,3.28A8.43,8.43,0,0,1,16.73,38.31Zm28.84-15a1.21,1.21,0,0,1,.59.94h0a8.7,8.7,0,0,1,.05,1.14,10.42,10.42,0,0,1-.78,3.67,3.14,3.14,0,0,1-2.35-2c-.65-2,.32-3.43,1.22-3.78A1.41,1.41,0,0,1,45.57,23.35ZM38.91,34.63a5,5,0,0,1-4.28-1.17,6.86,6.86,0,0,1-2.18-5.35c.11-3.86,2.93-8.48,7.3-9.2a6.43,6.43,0,0,1,1-.08A4.92,4.92,0,0,1,44,20.08a5.67,5.67,0,0,1,.9,1,3.57,3.57,0,0,0-1.39.26c-2.5,1-3.21,4-2.45,6.37A5.15,5.15,0,0,0,44.41,31,8.48,8.48,0,0,1,38.91,34.63Z" fill="#00adee"/><path d="M118.61,30.52v9.1c0,.21,0,.42,0,.62-.42,3.13-2.2,6.42-3.6,6.65a1.53,1.53,0,0,1-1.25-.25,3.55,3.55,0,0,1-1.17-2.38,19.08,19.08,0,0,1-.23-3.26V21.78a1,1,0,0,0-1-1h0a1,1,0,0,0-1,1V33.65a6.9,6.9,0,0,0-.8-.82,7.17,7.17,0,0,0-6-1.66A10.4,10.4,0,0,0,97,35.24a12.66,12.66,0,0,0-2.58,7.14,9,9,0,0,0,2.89,7A7.12,7.12,0,0,0,102,51.13a8,8,0,0,0,1.28-.11,10.39,10.39,0,0,0,6.46-3.94,12.12,12.12,0,0,0,1-1.47,5,5,0,0,0,1.79,2.74,3.61,3.61,0,0,0,2.12.67,4,4,0,0,0,.69-.06c1.36-.23,2.64-1.38,3.68-3.34.11-.21.22-.42.32-.64a4.52,4.52,0,0,0,1.52,2,3.55,3.55,0,0,0,2.12.68,4,4,0,0,0,.69-.06c2.85-.47,4.38-4.71,4.78-6a1,1,0,1,0-2-.62c-.77,2.47-2.08,4.38-3.12,4.55a1.61,1.61,0,0,1-1.25-.25,3.65,3.65,0,0,1-1.18-2.39,20.06,20.06,0,0,1-.22-3.25V30.17h0v-.71a1,1,0,0,0-1-1.05h0a1,1,0,0,0-1,1.05v1.06Zm-8.33,9.24c-.13,4.57-3.27,8.53-7.3,9.19a5,5,0,0,1-4.28-1.16,6.83,6.83,0,0,1-2.18-5.35c.11-3.87,2.93-8.48,7.3-9.2a5.26,5.26,0,0,1,1-.08,5,5,0,0,1,3.32,1.24A6.88,6.88,0,0,1,110.28,39.76Z" fill="#ff5211"/><path d="M106.89,19a1.05,1.05,0,0,0-1.31.69c-.76,2.47-2.08,4.38-3.12,4.55a1.61,1.61,0,0,1-1.25-.25A3.61,3.61,0,0,1,100,21.61a19.06,19.06,0,0,1-.22-3.25V9.12l5.11-.85a1,1,0,0,0-.34-2.07L99.82,7V1.05a1,1,0,0,0-1-1h0a1,1,0,0,0-1,1.05V7.34l-2.07.34a1,1,0,0,0,.17,2.08H96l1.73-.29v8.9c0,.21,0,.42,0,.62-.42,3.13-2.19,6.42-3.6,6.65a1.57,1.57,0,0,1-1.25-.25A3.58,3.58,0,0,1,91.71,23a20.28,20.28,0,0,1-.22-3.26V9.61a1,1,0,0,0-1-1h0a1,1,0,0,0-1,1v2.78a7,7,0,0,0-.81-.82,7.15,7.15,0,0,0-6-1.66A10.38,10.38,0,0,0,76.13,14a12.6,12.6,0,0,0-2.59,7.14,9,9,0,0,0,2.89,7,7.14,7.14,0,0,0,4.72,1.76,8,8,0,0,0,1.28-.11,10.37,10.37,0,0,0,6.46-3.94,13,13,0,0,0,1-1.47,5.09,5.09,0,0,0,1.79,2.74,3.63,3.63,0,0,0,2.12.67,4.23,4.23,0,0,0,.7-.06c1.36-.23,2.63-1.38,3.68-3.34.11-.21.21-.42.31-.64a4.67,4.67,0,0,0,1.52,2,3.55,3.55,0,0,0,2.12.68,4.23,4.23,0,0,0,.7-.06c2.84-.48,4.37-4.71,4.77-6A1.05,1.05,0,0,0,106.89,19Zm-17.5-.51c-.13,4.57-3.26,8.53-7.3,9.19a5,5,0,0,1-4.28-1.16,6.86,6.86,0,0,1-2.18-5.35c.11-3.87,2.93-8.48,7.3-9.2a5.33,5.33,0,0,1,1-.08,5,5,0,0,1,3.33,1.24A6.88,6.88,0,0,1,89.39,18.5Z" fill="#00adee"/><path d="M96,30.13l-.71,2.24-.72-2-.49.08V33l.33-.05V31.42c0-.06,0-.15,0-.27v-.36l.72,2,.34-.05.71-2.23v.38c0,.12,0,.2,0,.25v1.48l.33-.06v-2.5Z" fill="#00adee"/><path d="M93.24,46.94a1,1,0,0,0-1.38.53A8.83,8.83,0,0,1,85.2,52c-5.2.87-6.54-2.89-6.87-4.54a7.84,7.84,0,0,1-.16-1.29,11.86,11.86,0,0,0,3.14.4,14.72,14.72,0,0,0,9.27-3.27c2.11-1.83,2.93-4,2.33-6.24a4.69,4.69,0,0,0-3.66-3.33,9.76,9.76,0,0,0-4.45,0,11,11,0,0,0-7.17,5.68,13.14,13.14,0,0,0-1.53,5.16c-.25,1.53-.46,2.72-.73,4.22l-.15.88c-.44,2.48-1.31,4.12-2.26,4.28-.52.08-.71-.07-.77-.13-.67-.54-.73-2.49-.77-3.66v-.29s-.15-2.59-.07-6.27v0c0-.63-.16-3.88-2.23-5.62a4.76,4.76,0,0,0-4-1c-2.38.39-4.25,2-5.44,4.68a5.39,5.39,0,0,0-1.42-1.95,4.7,4.7,0,0,0-4-.93,6.79,6.79,0,0,0-4.63,3.16v-.71a1,1,0,0,0-1-1h0a1,1,0,0,0-1.05,1V59a1,1,0,0,0,1,1h0a1,1,0,0,0,1.05-1V49.31a13.87,13.87,0,0,1,1-4.76c.9-2.18,2.24-3.43,4-3.72a2.66,2.66,0,0,1,2.27.47c1,.86,1.42,2.74,1.44,4.09s0,2.7.08,4.19c.06,2.6.12,5.29.1,7.57a1.06,1.06,0,0,0,1,1.06h0a1.06,1.06,0,0,0,1.05-1.05c0-2.31-.05-5-.11-7.62,0-.66,0-1.29,0-1.91a.49.49,0,0,0,0-.12,14,14,0,0,1,1-4.76c.9-2.18,2.24-3.43,4-3.72a2.73,2.73,0,0,1,2.33.5c1.14.94,1.47,3,1.49,4-.08,3.65,0,6.16.07,6.4v.25c0,1.71.13,4.06,1.53,5.21a2.8,2.8,0,0,0,1.82.62,3.44,3.44,0,0,0,.62,0c1.87-.31,3.25-2.29,3.91-5.58a7.06,7.06,0,0,0,6.52,3.77A10.65,10.65,0,0,0,85.54,54a10.87,10.87,0,0,0,8.23-5.7A1,1,0,0,0,93.24,46.94ZM79.47,40.38a9,9,0,0,1,5.82-4.63c1.33-.32,4.93-.62,5.6,1.82.49,1.75-.65,3.2-1.68,4.11A12.43,12.43,0,0,1,78.28,44,11.22,11.22,0,0,1,79.47,40.38Z" fill="#00adee"/><path d="M147.5,42.57a1.06,1.06,0,0,0-1.11-.88,1.53,1.53,0,0,1-1.08-.23,3.61,3.61,0,0,1-1.17-2.39,19,19,0,0,1-.23-3.25V25.68a1,1,0,0,0-1-1h0a1,1,0,0,0-1.05,1v2.78a7.74,7.74,0,0,0-.8-.82A7.2,7.2,0,0,0,135,26a10.37,10.37,0,0,0-6.47,4.08A12.6,12.6,0,0,0,126,37.19a9,9,0,0,0,2.89,7,7.09,7.09,0,0,0,4.71,1.76,8,8,0,0,0,1.29-.11,10.39,10.39,0,0,0,6.46-3.94,12.12,12.12,0,0,0,1-1.47,4.94,4.94,0,0,0,1.79,2.74,3.61,3.61,0,0,0,2.12.67,2.77,2.77,0,0,0,.37,0,1.07,1.07,0,0,0,.92-1.24Zm-5.68-8c-.13,4.58-3.27,8.53-7.3,9.2a5.08,5.08,0,0,1-4.28-1.17,6.83,6.83,0,0,1-2.18-5.35c.11-3.86,2.93-8.48,7.3-9.2a6.22,6.22,0,0,1,1-.08,4.92,4.92,0,0,1,3.32,1.25A6.86,6.86,0,0,1,141.82,34.57Z" fill="#ff5211"/><circle cx="119.64" cy="23.9" r="1.45" fill="#ff5211"/><polygon points="92.51 33.2 92.85 33.14 92.85 30.94 93.7 30.8 93.7 30.5 91.67 30.84 91.67 31.13 92.51 31 92.51 33.2" fill="#00adee"/></g></g></svg>